<svg xmlns="http://www.w3.org/2000/svg" xmlns:xlink="http://www.w3.org/1999/xlink" width="64px" zoomAndPan="magnify" viewBox="0 0 375 374.999991" height="64px" preserveAspectRatio="xMidYMid meet" version="1.0"><defs><clipPath id="b7db0ff220"><path d="M 0 18.828125 L 375 18.828125 L 375 356.328125 L 0 356.328125 Z M 0 18.828125 " clip-rule="nonzero"/></clipPath><clipPath id="916ae88f97"><path d="M 7.128906 155.570312 L 10.878906 155.570312 L 10.878906 159.320312 L 7.128906 159.320312 Z M 7.128906 155.570312 " clip-rule="nonzero"/></clipPath></defs><g clip-path="url(#b7db0ff220)"><path fill="#2bb6a8" d="M 374.925781 141.738281 C 374.851562 141.738281 374.773438 141.738281 374.699219 141.738281 C 342.980469 141.664062 337.359375 130.5625 337.359375 107.230469 C 337.359375 81.347656 333.683594 62.742188 325.808594 48.636719 C 314.785156 28.90625 296.039062 18.855469 270.097656 18.855469 L 225.105469 18.855469 L 225.105469 46.914062 L 270.097656 46.914062 C 290.117188 46.914062 297.316406 55.164062 301.363281 62.367188 C 306.6875 71.96875 309.3125 86.597656 309.3125 107.230469 C 309.3125 119.535156 310.664062 137.539062 322.433594 151.117188 C 323.933594 152.84375 325.511719 154.34375 327.160156 155.84375 C 325.433594 157.269531 323.859375 158.84375 322.433594 160.570312 C 310.664062 174.148438 309.3125 192.078125 309.3125 204.457031 C 309.3125 225.089844 306.6875 239.71875 301.363281 249.320312 C 297.316406 256.523438 290.191406 264.773438 270.097656 264.773438 L 242.5 264.773438 L 200.511719 307.386719 C 205.007812 293.957031 208.683594 283.753906 208.757812 283.53125 L 215.507812 264.699219 L 104.828125 264.699219 C 84.808594 264.699219 77.609375 256.449219 73.558594 249.246094 C 68.238281 239.71875 65.613281 225.015625 65.613281 204.382812 C 65.613281 192.078125 64.261719 174.074219 52.488281 160.496094 C 50.988281 158.769531 49.414062 157.269531 47.765625 155.769531 C 49.488281 154.34375 51.066406 152.769531 52.488281 151.042969 C 64.261719 137.464844 65.613281 119.535156 65.613281 107.15625 C 65.613281 86.523438 68.238281 71.894531 73.558594 62.292969 C 77.609375 55.089844 84.734375 46.835938 104.828125 46.835938 L 149.820312 46.835938 L 149.820312 18.855469 L 104.828125 18.855469 C 78.882812 18.855469 60.136719 28.90625 49.113281 48.636719 C 41.242188 62.667969 37.566406 81.273438 37.566406 107.230469 C 37.566406 130.5625 31.945312 141.738281 0.226562 141.738281 C 0.148438 141.738281 0.0742188 141.738281 0 141.738281 L 0 169.796875 C 0.0742188 169.796875 0.148438 169.796875 0.226562 169.796875 C 31.945312 169.875 37.566406 180.976562 37.566406 204.308594 C 37.566406 230.191406 41.242188 248.796875 49.113281 262.898438 C 60.214844 282.628906 78.960938 292.683594 104.828125 292.683594 L 175.839844 292.683594 C 170.289062 309.039062 164.816406 325.09375 159.117188 341.445312 L 171.789062 348.949219 L 184.238281 356.300781 L 254.273438 292.609375 L 270.171875 292.609375 C 296.117188 292.609375 314.863281 282.554688 325.886719 262.824219 C 333.757812 248.796875 337.433594 230.191406 337.433594 204.234375 C 337.433594 180.902344 343.054688 169.722656 374.773438 169.722656 C 374.851562 169.722656 374.925781 169.722656 375 169.722656 L 375 141.738281 Z M 374.925781 141.738281 " fill-opacity="1" fill-rule="nonzero"/></g><path fill="#2bb6a8" d="M 90.28125 155.769531 C 90.28125 167.246094 99.582031 176.550781 111.054688 176.550781 C 122.527344 176.550781 131.824219 167.246094 131.824219 155.769531 C 131.824219 144.289062 122.527344 134.988281 111.054688 134.988281 C 99.582031 134.988281 90.28125 144.289062 90.28125 155.769531 Z M 90.28125 155.769531 " fill-opacity="1" fill-rule="nonzero"/><path fill="#2bb6a8" d="M 187.460938 176.550781 C 198.933594 176.550781 208.234375 167.246094 208.234375 155.769531 C 208.234375 144.289062 198.933594 134.988281 187.460938 134.988281 C 175.988281 134.988281 166.691406 144.289062 166.691406 155.769531 C 166.691406 167.246094 175.988281 176.550781 187.460938 176.550781 Z M 187.460938 176.550781 " fill-opacity="1" fill-rule="nonzero"/><path fill="#2bb6a8" d="M 284.644531 155.769531 C 284.644531 144.289062 275.34375 134.988281 263.871094 134.988281 C 252.398438 134.988281 243.101562 144.289062 243.101562 155.769531 C 243.101562 167.246094 252.398438 176.550781 263.871094 176.550781 C 275.34375 176.550781 284.644531 167.246094 284.644531 155.769531 Z M 284.644531 155.769531 " fill-opacity="1" fill-rule="nonzero"/><g clip-path="url(#916ae88f97)"></g><animateTransform attributeName="transform" type="scale" calcMode="spline" values="0.68;0.8;0.6000000000000001;0.7200000000000001;0.68;0.6400000000000001" keyTimes="0;0.05;0.39;0.45;0.6;1" dur="1s" keySplines="0.215 0.61,0.355 1;0.215 0.61,0.355 1;0.215 0.61,0.355 1;0.215 0.61,0.355 1;0.215 0.61,0.355 1" begin="0s" repeatCount="indefinite"></animateTransform></svg>