<svg xmlns="http://www.w3.org/2000/svg" xmlns:xlink="http://www.w3.org/1999/xlink" width="1200" zoomAndPan="magnify" viewBox="0 0 900 506.249968" height="675" preserveAspectRatio="xMidYMid meet" version="1.0"><defs><g/><clipPath id="f4774660f7"><path d="M 7.210938 149.917969 L 279 149.917969 L 279 394.054688 L 7.210938 394.054688 Z M 7.210938 149.917969 " clip-rule="nonzero"/></clipPath></defs><g clip-path="url(#f4774660f7)"><path fill="#5d2e8c" d="M 278.640625 238.859375 C 278.585938 238.859375 278.53125 238.859375 278.476562 238.859375 C 255.515625 238.804688 251.441406 230.769531 251.441406 213.886719 C 251.441406 195.15625 248.78125 181.695312 243.082031 171.488281 C 235.101562 157.210938 221.53125 149.9375 202.75 149.9375 L 170.175781 149.9375 L 170.175781 170.238281 L 202.75 170.238281 C 217.242188 170.238281 222.453125 176.210938 225.386719 181.421875 C 229.238281 188.371094 231.140625 198.957031 231.140625 213.886719 C 231.140625 222.789062 232.117188 235.816406 240.640625 245.644531 C 241.726562 246.890625 242.867188 247.976562 244.058594 249.0625 C 242.8125 250.09375 241.671875 251.234375 240.640625 252.484375 C 232.117188 262.308594 231.140625 275.285156 231.140625 284.242188 C 231.140625 299.167969 229.238281 309.753906 225.386719 316.703125 C 222.453125 321.914062 217.296875 327.886719 202.75 327.886719 L 182.769531 327.886719 L 152.371094 358.722656 C 155.628906 349.003906 158.289062 341.621094 158.34375 341.457031 L 163.226562 327.832031 L 83.101562 327.832031 C 68.605469 327.832031 63.394531 321.859375 60.464844 316.648438 C 56.609375 309.753906 54.710938 299.117188 54.710938 284.1875 C 54.710938 275.285156 53.734375 262.253906 45.210938 252.429688 C 44.125 251.179688 42.984375 250.09375 41.789062 249.007812 C 43.039062 247.976562 44.179688 246.835938 45.210938 245.589844 C 53.734375 235.761719 54.710938 222.789062 54.710938 213.832031 C 54.710938 198.902344 56.609375 188.316406 60.464844 181.367188 C 63.394531 176.15625 68.554688 170.1875 83.101562 170.1875 L 115.671875 170.1875 L 115.671875 149.9375 L 83.101562 149.9375 C 64.320312 149.9375 50.746094 157.210938 42.765625 171.488281 C 37.066406 181.640625 34.40625 195.101562 34.40625 213.886719 C 34.40625 230.769531 30.335938 238.859375 7.371094 238.859375 C 7.320312 238.859375 7.265625 238.859375 7.210938 238.859375 L 7.210938 259.160156 C 7.265625 259.160156 7.320312 259.160156 7.371094 259.160156 C 30.335938 259.214844 34.40625 267.25 34.40625 284.132812 C 34.40625 302.859375 37.066406 316.324219 42.765625 326.53125 C 50.800781 340.808594 64.375 348.082031 83.101562 348.082031 L 134.511719 348.082031 C 130.492188 359.914062 126.53125 371.53125 122.40625 383.367188 L 131.578125 388.796875 L 140.589844 394.117188 L 191.292969 348.027344 L 202.800781 348.027344 C 221.585938 348.027344 235.15625 340.753906 243.136719 326.476562 C 248.835938 316.324219 251.496094 302.859375 251.496094 284.078125 C 251.496094 267.195312 255.570312 259.105469 278.53125 259.105469 C 278.585938 259.105469 278.640625 259.105469 278.695312 259.105469 L 278.695312 238.859375 Z M 278.640625 238.859375 " fill-opacity="1" fill-rule="nonzero"/></g><path fill="#5d2e8c" d="M 72.570312 249.007812 C 72.570312 257.316406 79.300781 264.046875 87.609375 264.046875 C 95.914062 264.046875 102.644531 257.316406 102.644531 249.007812 C 102.644531 240.703125 95.914062 233.972656 87.609375 233.972656 C 79.300781 233.972656 72.570312 240.703125 72.570312 249.007812 Z M 72.570312 249.007812 " fill-opacity="1" fill-rule="nonzero"/><path fill="#5d2e8c" d="M 142.925781 264.046875 C 151.230469 264.046875 157.960938 257.316406 157.960938 249.007812 C 157.960938 240.703125 151.230469 233.972656 142.925781 233.972656 C 134.621094 233.972656 127.886719 240.703125 127.886719 249.007812 C 127.886719 257.316406 134.621094 264.046875 142.925781 264.046875 Z M 142.925781 264.046875 " fill-opacity="1" fill-rule="nonzero"/><path fill="#5d2e8c" d="M 213.28125 249.007812 C 213.28125 240.703125 206.546875 233.972656 198.242188 233.972656 C 189.9375 233.972656 183.207031 240.703125 183.207031 249.007812 C 183.207031 257.316406 189.9375 264.046875 198.242188 264.046875 C 206.546875 264.046875 213.28125 257.316406 213.28125 249.007812 Z M 213.28125 249.007812 " fill-opacity="1" fill-rule="nonzero"/><g fill="#1c1c1c" fill-opacity="1"><g transform="translate(298.497101, 216.899938)"><g><path d="M 65.046875 -60.953125 L 65.046875 0 L 44.5 0 L 44.5 -22.46875 L 25.515625 -22.46875 L 25.515625 0 L 4.96875 0 L 4.96875 -60.953125 L 25.515625 -60.953125 L 25.515625 -39.359375 L 44.5 -39.359375 L 44.5 -60.953125 Z M 65.046875 -60.953125 "/></g></g></g><g fill="#1c1c1c" fill-opacity="1"><g transform="translate(369.459311, 216.899938)"><g><path d="M 55.640625 -15.5 L 55.640625 0 L 4.96875 0 L 4.96875 -60.953125 L 54.515625 -60.953125 L 54.515625 -45.453125 L 25.171875 -45.453125 L 25.171875 -38.3125 L 50.9375 -38.3125 L 50.9375 -23.515625 L 25.171875 -23.515625 L 25.171875 -15.5 Z M 55.640625 -15.5 "/></g></g></g><g fill="#1c1c1c" fill-opacity="1"><g transform="translate(429.015328, 216.899938)"><g><path d="M 31.09375 -15.328125 L 25.515625 -15.328125 L 25.515625 0 L 4.96875 0 L 4.96875 -60.953125 L 34.3125 -60.953125 C 39.9375 -60.953125 44.835938 -60.019531 49.015625 -58.15625 C 53.203125 -56.300781 56.425781 -53.632812 58.6875 -50.15625 C 60.957031 -46.675781 62.09375 -42.613281 62.09375 -37.96875 C 62.09375 -33.613281 61.101562 -29.8125 59.125 -26.5625 C 57.15625 -23.3125 54.3125 -20.726562 50.59375 -18.8125 L 63.390625 0 L 41.453125 0 Z M 41.359375 -37.96875 C 41.359375 -40.226562 40.660156 -41.984375 39.265625 -43.234375 C 37.878906 -44.484375 35.789062 -45.109375 33 -45.109375 L 25.515625 -45.109375 L 25.515625 -30.828125 L 33 -30.828125 C 35.789062 -30.828125 37.878906 -31.445312 39.265625 -32.6875 C 40.660156 -33.9375 41.359375 -35.695312 41.359375 -37.96875 Z M 41.359375 -37.96875 "/></g></g></g><g fill="#1c1c1c" fill-opacity="1"><g transform="translate(298.497101, 294.551131)"><g><path d="M 36.484375 1.390625 C 30.035156 1.390625 24.226562 0.0390625 19.0625 -2.65625 C 13.894531 -5.351562 9.847656 -9.125 6.921875 -13.96875 C 3.992188 -18.820312 2.53125 -24.328125 2.53125 -30.484375 C 2.53125 -36.628906 3.992188 -42.125 6.921875 -46.96875 C 9.847656 -51.820312 13.894531 -55.597656 19.0625 -58.296875 C 24.226562 -60.992188 30.035156 -62.34375 36.484375 -62.34375 C 42.410156 -62.34375 47.691406 -61.296875 52.328125 -59.203125 C 56.972656 -57.117188 60.804688 -54.101562 63.828125 -50.15625 L 50.859375 -38.578125 C 47.078125 -43.335938 42.632812 -45.71875 37.53125 -45.71875 C 33.238281 -45.71875 29.785156 -44.335938 27.171875 -41.578125 C 24.554688 -38.816406 23.25 -35.117188 23.25 -30.484375 C 23.25 -25.835938 24.554688 -22.132812 27.171875 -19.375 C 29.785156 -16.613281 33.238281 -15.234375 37.53125 -15.234375 C 42.632812 -15.234375 47.078125 -17.613281 50.859375 -22.375 L 63.828125 -10.796875 C 60.804688 -6.847656 56.972656 -3.828125 52.328125 -1.734375 C 47.691406 0.347656 42.410156 1.390625 36.484375 1.390625 Z M 36.484375 1.390625 "/></g></g></g><g fill="#1c1c1c" fill-opacity="1"><g transform="translate(364.235098, 294.551131)"><g><path d="M 36.921875 1.390625 C 30.359375 1.390625 24.460938 0.0234375 19.234375 -2.703125 C 14.015625 -5.429688 9.925781 -9.21875 6.96875 -14.0625 C 4.007812 -18.90625 2.53125 -24.378906 2.53125 -30.484375 C 2.53125 -36.578125 4.007812 -42.046875 6.96875 -46.890625 C 9.925781 -51.734375 14.015625 -55.519531 19.234375 -58.25 C 24.460938 -60.976562 30.359375 -62.34375 36.921875 -62.34375 C 43.484375 -62.34375 49.375 -60.976562 54.59375 -58.25 C 59.820312 -55.519531 63.914062 -51.734375 66.875 -46.890625 C 69.832031 -42.046875 71.3125 -36.578125 71.3125 -30.484375 C 71.3125 -24.378906 69.832031 -18.90625 66.875 -14.0625 C 63.914062 -9.21875 59.820312 -5.429688 54.59375 -2.703125 C 49.375 0.0234375 43.484375 1.390625 36.921875 1.390625 Z M 36.921875 -15.234375 C 39.472656 -15.234375 41.78125 -15.859375 43.84375 -17.109375 C 45.90625 -18.359375 47.546875 -20.128906 48.765625 -22.421875 C 49.984375 -24.710938 50.59375 -27.398438 50.59375 -30.484375 C 50.59375 -33.554688 49.984375 -36.238281 48.765625 -38.53125 C 47.546875 -40.820312 45.90625 -42.59375 43.84375 -43.84375 C 41.78125 -45.09375 39.472656 -45.71875 36.921875 -45.71875 C 34.367188 -45.71875 32.0625 -45.09375 30 -43.84375 C 27.9375 -42.59375 26.296875 -40.820312 25.078125 -38.53125 C 23.859375 -36.238281 23.25 -33.554688 23.25 -30.484375 C 23.25 -27.398438 23.859375 -24.710938 25.078125 -22.421875 C 26.296875 -20.128906 27.9375 -18.359375 30 -17.109375 C 32.0625 -15.859375 34.367188 -15.234375 36.921875 -15.234375 Z M 36.921875 -15.234375 "/></g></g></g><g fill="#1c1c1c" fill-opacity="1"><g transform="translate(439.02839, 294.551131)"><g><path d="M 4.96875 -60.953125 L 35 -60.953125 C 41.789062 -60.953125 47.785156 -59.71875 52.984375 -57.25 C 58.179688 -54.78125 62.21875 -51.253906 65.09375 -46.671875 C 67.96875 -42.085938 69.40625 -36.691406 69.40625 -30.484375 C 69.40625 -24.265625 67.96875 -18.863281 65.09375 -14.28125 C 62.21875 -9.695312 58.179688 -6.171875 52.984375 -3.703125 C 47.785156 -1.234375 41.789062 0 35 0 L 4.96875 0 Z M 34.140625 -16.015625 C 38.546875 -16.015625 42.066406 -17.273438 44.703125 -19.796875 C 47.347656 -22.328125 48.671875 -25.890625 48.671875 -30.484375 C 48.671875 -35.066406 47.347656 -38.617188 44.703125 -41.140625 C 42.066406 -43.671875 38.546875 -44.9375 34.140625 -44.9375 L 25.515625 -44.9375 L 25.515625 -16.015625 Z M 34.140625 -16.015625 "/></g></g></g><g fill="#1c1c1c" fill-opacity="1"><g transform="translate(511.906152, 294.551131)"><g><path d="M 55.640625 -15.5 L 55.640625 0 L 4.96875 0 L 4.96875 -60.953125 L 54.515625 -60.953125 L 54.515625 -45.453125 L 25.171875 -45.453125 L 25.171875 -38.3125 L 50.9375 -38.3125 L 50.9375 -23.515625 L 25.171875 -23.515625 L 25.171875 -15.5 Z M 55.640625 -15.5 "/></g></g></g><g fill="#1c1c1c" fill-opacity="1"><g transform="translate(298.497101, 372.323858)"><g><path d="M 36.484375 1.390625 C 30.035156 1.390625 24.226562 0.0390625 19.0625 -2.65625 C 13.894531 -5.351562 9.847656 -9.125 6.921875 -13.96875 C 3.992188 -18.820312 2.53125 -24.328125 2.53125 -30.484375 C 2.53125 -36.628906 3.992188 -42.125 6.921875 -46.96875 C 9.847656 -51.820312 13.894531 -55.597656 19.0625 -58.296875 C 24.226562 -60.992188 30.035156 -62.34375 36.484375 -62.34375 C 42.410156 -62.34375 47.691406 -61.296875 52.328125 -59.203125 C 56.972656 -57.117188 60.804688 -54.101562 63.828125 -50.15625 L 50.859375 -38.578125 C 47.078125 -43.335938 42.632812 -45.71875 37.53125 -45.71875 C 33.238281 -45.71875 29.785156 -44.335938 27.171875 -41.578125 C 24.554688 -38.816406 23.25 -35.117188 23.25 -30.484375 C 23.25 -25.835938 24.554688 -22.132812 27.171875 -19.375 C 29.785156 -16.613281 33.238281 -15.234375 37.53125 -15.234375 C 42.632812 -15.234375 47.078125 -17.613281 50.859375 -22.375 L 63.828125 -10.796875 C 60.804688 -6.847656 56.972656 -3.828125 52.328125 -1.734375 C 47.691406 0.347656 42.410156 1.390625 36.484375 1.390625 Z M 36.484375 1.390625 "/></g></g></g><g fill="#1c1c1c" fill-opacity="1"><g transform="translate(364.235098, 372.323858)"><g><path d="M 36.921875 1.390625 C 30.359375 1.390625 24.460938 0.0234375 19.234375 -2.703125 C 14.015625 -5.429688 9.925781 -9.21875 6.96875 -14.0625 C 4.007812 -18.90625 2.53125 -24.378906 2.53125 -30.484375 C 2.53125 -36.578125 4.007812 -42.046875 6.96875 -46.890625 C 9.925781 -51.734375 14.015625 -55.519531 19.234375 -58.25 C 24.460938 -60.976562 30.359375 -62.34375 36.921875 -62.34375 C 43.484375 -62.34375 49.375 -60.976562 54.59375 -58.25 C 59.820312 -55.519531 63.914062 -51.734375 66.875 -46.890625 C 69.832031 -42.046875 71.3125 -36.578125 71.3125 -30.484375 C 71.3125 -24.378906 69.832031 -18.90625 66.875 -14.0625 C 63.914062 -9.21875 59.820312 -5.429688 54.59375 -2.703125 C 49.375 0.0234375 43.484375 1.390625 36.921875 1.390625 Z M 36.921875 -15.234375 C 39.472656 -15.234375 41.78125 -15.859375 43.84375 -17.109375 C 45.90625 -18.359375 47.546875 -20.128906 48.765625 -22.421875 C 49.984375 -24.710938 50.59375 -27.398438 50.59375 -30.484375 C 50.59375 -33.554688 49.984375 -36.238281 48.765625 -38.53125 C 47.546875 -40.820312 45.90625 -42.59375 43.84375 -43.84375 C 41.78125 -45.09375 39.472656 -45.71875 36.921875 -45.71875 C 34.367188 -45.71875 32.0625 -45.09375 30 -43.84375 C 27.9375 -42.59375 26.296875 -40.820312 25.078125 -38.53125 C 23.859375 -36.238281 23.25 -33.554688 23.25 -30.484375 C 23.25 -27.398438 23.859375 -24.710938 25.078125 -22.421875 C 26.296875 -20.128906 27.9375 -18.359375 30 -17.109375 C 32.0625 -15.859375 34.367188 -15.234375 36.921875 -15.234375 Z M 36.921875 -15.234375 "/></g></g></g><g fill="#1c1c1c" fill-opacity="1"><g transform="translate(439.02839, 372.323858)"><g><path d="M 4.96875 -60.953125 L 25.515625 -60.953125 L 25.515625 -15.9375 L 53.03125 -15.9375 L 53.03125 0 L 4.96875 0 Z M 4.96875 -60.953125 "/></g></g></g><g fill="#1c1c1c" fill-opacity="1"><g transform="translate(493.708489, 372.323858)"><g><path d="M 4.96875 -60.953125 L 25.515625 -60.953125 L 25.515625 -15.9375 L 53.03125 -15.9375 L 53.03125 0 L 4.96875 0 Z M 4.96875 -60.953125 "/></g></g></g><g fill="#1c1c1c" fill-opacity="1"><g transform="translate(548.388576, 372.323858)"><g><path d="M 55.640625 -15.5 L 55.640625 0 L 4.96875 0 L 4.96875 -60.953125 L 54.515625 -60.953125 L 54.515625 -45.453125 L 25.171875 -45.453125 L 25.171875 -38.3125 L 50.9375 -38.3125 L 50.9375 -23.515625 L 25.171875 -23.515625 L 25.171875 -15.5 Z M 55.640625 -15.5 "/></g></g></g><g fill="#1c1c1c" fill-opacity="1"><g transform="translate(607.944587, 372.323858)"><g><path d="M 36.484375 1.390625 C 30.035156 1.390625 24.226562 0.0390625 19.0625 -2.65625 C 13.894531 -5.351562 9.847656 -9.125 6.921875 -13.96875 C 3.992188 -18.820312 2.53125 -24.328125 2.53125 -30.484375 C 2.53125 -36.628906 3.992188 -42.125 6.921875 -46.96875 C 9.847656 -51.820312 13.894531 -55.597656 19.0625 -58.296875 C 24.226562 -60.992188 30.035156 -62.34375 36.484375 -62.34375 C 42.410156 -62.34375 47.691406 -61.296875 52.328125 -59.203125 C 56.972656 -57.117188 60.804688 -54.101562 63.828125 -50.15625 L 50.859375 -38.578125 C 47.078125 -43.335938 42.632812 -45.71875 37.53125 -45.71875 C 33.238281 -45.71875 29.785156 -44.335938 27.171875 -41.578125 C 24.554688 -38.816406 23.25 -35.117188 23.25 -30.484375 C 23.25 -25.835938 24.554688 -22.132812 27.171875 -19.375 C 29.785156 -16.613281 33.238281 -15.234375 37.53125 -15.234375 C 42.632812 -15.234375 47.078125 -17.613281 50.859375 -22.375 L 63.828125 -10.796875 C 60.804688 -6.847656 56.972656 -3.828125 52.328125 -1.734375 C 47.691406 0.347656 42.410156 1.390625 36.484375 1.390625 Z M 36.484375 1.390625 "/></g></g></g><g fill="#1c1c1c" fill-opacity="1"><g transform="translate(673.682579, 372.323858)"><g><path d="M 18.203125 -45.015625 L 0.34375 -45.015625 L 0.34375 -60.953125 L 56.59375 -60.953125 L 56.59375 -45.015625 L 38.75 -45.015625 L 38.75 0 L 18.203125 0 Z M 18.203125 -45.015625 "/></g></g></g><g fill="#1c1c1c" fill-opacity="1"><g transform="translate(731.58428, 372.323858)"><g><path d="M 4.96875 -60.953125 L 25.515625 -60.953125 L 25.515625 0 L 4.96875 0 Z M 4.96875 -60.953125 "/></g></g></g><g fill="#1c1c1c" fill-opacity="1"><g transform="translate(763.016654, 372.323858)"><g><path d="M 70.09375 -60.953125 L 44.328125 0 L 24.125 0 L -1.65625 -60.953125 L 20.46875 -60.953125 L 35 -25.34375 L 49.890625 -60.953125 Z M 70.09375 -60.953125 "/></g></g></g><g fill="#1c1c1c" fill-opacity="1"><g transform="translate(832.411611, 372.323858)"><g><path d="M 55.640625 -15.5 L 55.640625 0 L 4.96875 0 L 4.96875 -60.953125 L 54.515625 -60.953125 L 54.515625 -45.453125 L 25.171875 -45.453125 L 25.171875 -38.3125 L 50.9375 -38.3125 L 50.9375 -23.515625 L 25.171875 -23.515625 L 25.171875 -15.5 Z M 55.640625 -15.5 "/></g></g></g></svg>