<svg xmlns="http://www.w3.org/2000/svg" xmlns:xlink="http://www.w3.org/1999/xlink" width="1200" zoomAndPan="magnify" viewBox="0 0 900 506.249968" height="675" preserveAspectRatio="xMidYMid meet" version="1.0"><defs><g/><clipPath id="18c57ebccf"><path d="M 7.210938 149.917969 L 279.058594 149.917969 L 279.058594 394.054688 L 7.210938 394.054688 Z M 7.210938 149.917969 " clip-rule="nonzero"/></clipPath></defs><g clip-path="url(#18c57ebccf)"><path fill="#1d1d1b" d="M 279.003906 238.828125 C 278.949219 238.828125 278.894531 238.828125 278.839844 238.828125 C 255.847656 238.773438 251.769531 230.742188 251.769531 213.863281 C 251.769531 195.140625 249.105469 181.683594 243.398438 171.480469 C 235.40625 157.210938 221.816406 149.9375 203.007812 149.9375 L 170.394531 149.9375 L 170.394531 170.234375 L 203.007812 170.234375 C 217.523438 170.234375 222.742188 176.203125 225.675781 181.414062 C 229.535156 188.359375 231.4375 198.941406 231.4375 213.863281 C 231.4375 222.765625 232.417969 235.789062 240.953125 245.613281 C 242.039062 246.859375 243.179688 247.945312 244.375 249.03125 C 243.125 250.0625 241.984375 251.199219 240.953125 252.449219 C 232.417969 262.273438 231.4375 275.242188 231.4375 284.195312 C 231.4375 299.121094 229.535156 309.703125 225.675781 316.648438 C 222.742188 321.859375 217.578125 327.828125 203.007812 327.828125 L 183.003906 327.828125 L 152.566406 358.652344 C 155.828125 348.9375 158.488281 341.558594 158.542969 341.394531 L 163.4375 327.773438 L 83.203125 327.773438 C 68.6875 327.773438 63.472656 321.804688 60.535156 316.59375 C 56.675781 309.703125 54.773438 299.066406 54.773438 284.140625 C 54.773438 275.242188 53.796875 262.21875 45.261719 252.394531 C 44.171875 251.148438 43.03125 250.0625 41.835938 248.976562 C 43.085938 247.945312 44.226562 246.804688 45.261719 245.558594 C 53.796875 235.734375 54.773438 222.765625 54.773438 213.808594 C 54.773438 198.886719 56.675781 188.304688 60.535156 181.359375 C 63.472656 176.148438 68.636719 170.179688 83.203125 170.179688 L 115.816406 170.179688 L 115.816406 149.9375 L 83.203125 149.9375 C 64.394531 149.9375 50.804688 157.210938 42.816406 171.480469 C 37.105469 181.628906 34.445312 195.089844 34.445312 213.863281 C 34.445312 230.742188 30.367188 238.828125 7.371094 238.828125 C 7.320312 238.828125 7.265625 238.828125 7.210938 238.828125 L 7.210938 259.125 C 7.265625 259.125 7.320312 259.125 7.371094 259.125 C 30.367188 259.179688 34.445312 267.210938 34.445312 284.085938 C 34.445312 302.808594 37.105469 316.269531 42.816406 326.46875 C 50.859375 340.742188 64.449219 348.015625 83.203125 348.015625 L 134.679688 348.015625 C 130.660156 359.84375 126.691406 371.457031 122.558594 383.289062 L 131.746094 388.714844 L 140.769531 394.035156 L 191.539062 347.960938 L 203.0625 347.960938 C 221.871094 347.960938 235.460938 340.6875 243.453125 326.417969 C 249.160156 316.269531 251.824219 302.808594 251.824219 284.03125 C 251.824219 267.15625 255.902344 259.070312 278.894531 259.070312 C 278.949219 259.070312 279.003906 259.070312 279.058594 259.070312 L 279.058594 238.828125 Z M 279.003906 238.828125 " fill-opacity="1" fill-rule="nonzero"/></g><path fill="#1d1d1b" d="M 72.65625 248.976562 C 72.65625 257.277344 79.398438 264.007812 87.714844 264.007812 C 96.03125 264.007812 102.773438 257.277344 102.773438 248.976562 C 102.773438 240.671875 96.03125 233.945312 87.714844 233.945312 C 79.398438 233.945312 72.65625 240.671875 72.65625 248.976562 Z M 72.65625 248.976562 " fill-opacity="1" fill-rule="nonzero"/><path fill="#1d1d1b" d="M 143.105469 264.007812 C 151.421875 264.007812 158.164062 257.277344 158.164062 248.976562 C 158.164062 240.671875 151.421875 233.945312 143.105469 233.945312 C 134.789062 233.945312 128.050781 240.671875 128.050781 248.976562 C 128.050781 257.277344 134.789062 264.007812 143.105469 264.007812 Z M 143.105469 264.007812 " fill-opacity="1" fill-rule="nonzero"/><path fill="#1d1d1b" d="M 213.554688 248.976562 C 213.554688 240.671875 206.816406 233.945312 198.496094 233.945312 C 190.179688 233.945312 183.441406 240.671875 183.441406 248.976562 C 183.441406 257.277344 190.179688 264.007812 198.496094 264.007812 C 206.816406 264.007812 213.554688 257.277344 213.554688 248.976562 Z M 213.554688 248.976562 " fill-opacity="1" fill-rule="nonzero"/><g fill="#1c1c1c" fill-opacity="1"><g transform="translate(298.497101, 216.899938)"><g><path d="M 65.046875 -60.953125 L 65.046875 0 L 44.5 0 L 44.5 -22.46875 L 25.515625 -22.46875 L 25.515625 0 L 4.96875 0 L 4.96875 -60.953125 L 25.515625 -60.953125 L 25.515625 -39.359375 L 44.5 -39.359375 L 44.5 -60.953125 Z M 65.046875 -60.953125 "/></g></g></g><g fill="#1c1c1c" fill-opacity="1"><g transform="translate(369.459311, 216.899938)"><g><path d="M 55.640625 -15.5 L 55.640625 0 L 4.96875 0 L 4.96875 -60.953125 L 54.515625 -60.953125 L 54.515625 -45.453125 L 25.171875 -45.453125 L 25.171875 -38.3125 L 50.9375 -38.3125 L 50.9375 -23.515625 L 25.171875 -23.515625 L 25.171875 -15.5 Z M 55.640625 -15.5 "/></g></g></g><g fill="#1c1c1c" fill-opacity="1"><g transform="translate(429.015328, 216.899938)"><g><path d="M 31.09375 -15.328125 L 25.515625 -15.328125 L 25.515625 0 L 4.96875 0 L 4.96875 -60.953125 L 34.3125 -60.953125 C 39.9375 -60.953125 44.835938 -60.019531 49.015625 -58.15625 C 53.203125 -56.300781 56.425781 -53.632812 58.6875 -50.15625 C 60.957031 -46.675781 62.09375 -42.613281 62.09375 -37.96875 C 62.09375 -33.613281 61.101562 -29.8125 59.125 -26.5625 C 57.15625 -23.3125 54.3125 -20.726562 50.59375 -18.8125 L 63.390625 0 L 41.453125 0 Z M 41.359375 -37.96875 C 41.359375 -40.226562 40.660156 -41.984375 39.265625 -43.234375 C 37.878906 -44.484375 35.789062 -45.109375 33 -45.109375 L 25.515625 -45.109375 L 25.515625 -30.828125 L 33 -30.828125 C 35.789062 -30.828125 37.878906 -31.445312 39.265625 -32.6875 C 40.660156 -33.9375 41.359375 -35.695312 41.359375 -37.96875 Z M 41.359375 -37.96875 "/></g></g></g><g fill="#1c1c1c" fill-opacity="1"><g transform="translate(298.497101, 294.551131)"><g><path d="M 36.484375 1.390625 C 30.035156 1.390625 24.226562 0.0390625 19.0625 -2.65625 C 13.894531 -5.351562 9.847656 -9.125 6.921875 -13.96875 C 3.992188 -18.820312 2.53125 -24.328125 2.53125 -30.484375 C 2.53125 -36.628906 3.992188 -42.125 6.921875 -46.96875 C 9.847656 -51.820312 13.894531 -55.597656 19.0625 -58.296875 C 24.226562 -60.992188 30.035156 -62.34375 36.484375 -62.34375 C 42.410156 -62.34375 47.691406 -61.296875 52.328125 -59.203125 C 56.972656 -57.117188 60.804688 -54.101562 63.828125 -50.15625 L 50.859375 -38.578125 C 47.078125 -43.335938 42.632812 -45.71875 37.53125 -45.71875 C 33.238281 -45.71875 29.785156 -44.335938 27.171875 -41.578125 C 24.554688 -38.816406 23.25 -35.117188 23.25 -30.484375 C 23.25 -25.835938 24.554688 -22.132812 27.171875 -19.375 C 29.785156 -16.613281 33.238281 -15.234375 37.53125 -15.234375 C 42.632812 -15.234375 47.078125 -17.613281 50.859375 -22.375 L 63.828125 -10.796875 C 60.804688 -6.847656 56.972656 -3.828125 52.328125 -1.734375 C 47.691406 0.347656 42.410156 1.390625 36.484375 1.390625 Z M 36.484375 1.390625 "/></g></g></g><g fill="#1c1c1c" fill-opacity="1"><g transform="translate(364.235098, 294.551131)"><g><path d="M 36.921875 1.390625 C 30.359375 1.390625 24.460938 0.0234375 19.234375 -2.703125 C 14.015625 -5.429688 9.925781 -9.21875 6.96875 -14.0625 C 4.007812 -18.90625 2.53125 -24.378906 2.53125 -30.484375 C 2.53125 -36.578125 4.007812 -42.046875 6.96875 -46.890625 C 9.925781 -51.734375 14.015625 -55.519531 19.234375 -58.25 C 24.460938 -60.976562 30.359375 -62.34375 36.921875 -62.34375 C 43.484375 -62.34375 49.375 -60.976562 54.59375 -58.25 C 59.820312 -55.519531 63.914062 -51.734375 66.875 -46.890625 C 69.832031 -42.046875 71.3125 -36.578125 71.3125 -30.484375 C 71.3125 -24.378906 69.832031 -18.90625 66.875 -14.0625 C 63.914062 -9.21875 59.820312 -5.429688 54.59375 -2.703125 C 49.375 0.0234375 43.484375 1.390625 36.921875 1.390625 Z M 36.921875 -15.234375 C 39.472656 -15.234375 41.78125 -15.859375 43.84375 -17.109375 C 45.90625 -18.359375 47.546875 -20.128906 48.765625 -22.421875 C 49.984375 -24.710938 50.59375 -27.398438 50.59375 -30.484375 C 50.59375 -33.554688 49.984375 -36.238281 48.765625 -38.53125 C 47.546875 -40.820312 45.90625 -42.59375 43.84375 -43.84375 C 41.78125 -45.09375 39.472656 -45.71875 36.921875 -45.71875 C 34.367188 -45.71875 32.0625 -45.09375 30 -43.84375 C 27.9375 -42.59375 26.296875 -40.820312 25.078125 -38.53125 C 23.859375 -36.238281 23.25 -33.554688 23.25 -30.484375 C 23.25 -27.398438 23.859375 -24.710938 25.078125 -22.421875 C 26.296875 -20.128906 27.9375 -18.359375 30 -17.109375 C 32.0625 -15.859375 34.367188 -15.234375 36.921875 -15.234375 Z M 36.921875 -15.234375 "/></g></g></g><g fill="#1c1c1c" fill-opacity="1"><g transform="translate(439.02839, 294.551131)"><g><path d="M 4.96875 -60.953125 L 35 -60.953125 C 41.789062 -60.953125 47.785156 -59.71875 52.984375 -57.25 C 58.179688 -54.78125 62.21875 -51.253906 65.09375 -46.671875 C 67.96875 -42.085938 69.40625 -36.691406 69.40625 -30.484375 C 69.40625 -24.265625 67.96875 -18.863281 65.09375 -14.28125 C 62.21875 -9.695312 58.179688 -6.171875 52.984375 -3.703125 C 47.785156 -1.234375 41.789062 0 35 0 L 4.96875 0 Z M 34.140625 -16.015625 C 38.546875 -16.015625 42.066406 -17.273438 44.703125 -19.796875 C 47.347656 -22.328125 48.671875 -25.890625 48.671875 -30.484375 C 48.671875 -35.066406 47.347656 -38.617188 44.703125 -41.140625 C 42.066406 -43.671875 38.546875 -44.9375 34.140625 -44.9375 L 25.515625 -44.9375 L 25.515625 -16.015625 Z M 34.140625 -16.015625 "/></g></g></g><g fill="#1c1c1c" fill-opacity="1"><g transform="translate(511.906152, 294.551131)"><g><path d="M 55.640625 -15.5 L 55.640625 0 L 4.96875 0 L 4.96875 -60.953125 L 54.515625 -60.953125 L 54.515625 -45.453125 L 25.171875 -45.453125 L 25.171875 -38.3125 L 50.9375 -38.3125 L 50.9375 -23.515625 L 25.171875 -23.515625 L 25.171875 -15.5 Z M 55.640625 -15.5 "/></g></g></g><g fill="#1c1c1c" fill-opacity="1"><g transform="translate(298.497101, 372.323858)"><g><path d="M 36.484375 1.390625 C 30.035156 1.390625 24.226562 0.0390625 19.0625 -2.65625 C 13.894531 -5.351562 9.847656 -9.125 6.921875 -13.96875 C 3.992188 -18.820312 2.53125 -24.328125 2.53125 -30.484375 C 2.53125 -36.628906 3.992188 -42.125 6.921875 -46.96875 C 9.847656 -51.820312 13.894531 -55.597656 19.0625 -58.296875 C 24.226562 -60.992188 30.035156 -62.34375 36.484375 -62.34375 C 42.410156 -62.34375 47.691406 -61.296875 52.328125 -59.203125 C 56.972656 -57.117188 60.804688 -54.101562 63.828125 -50.15625 L 50.859375 -38.578125 C 47.078125 -43.335938 42.632812 -45.71875 37.53125 -45.71875 C 33.238281 -45.71875 29.785156 -44.335938 27.171875 -41.578125 C 24.554688 -38.816406 23.25 -35.117188 23.25 -30.484375 C 23.25 -25.835938 24.554688 -22.132812 27.171875 -19.375 C 29.785156 -16.613281 33.238281 -15.234375 37.53125 -15.234375 C 42.632812 -15.234375 47.078125 -17.613281 50.859375 -22.375 L 63.828125 -10.796875 C 60.804688 -6.847656 56.972656 -3.828125 52.328125 -1.734375 C 47.691406 0.347656 42.410156 1.390625 36.484375 1.390625 Z M 36.484375 1.390625 "/></g></g></g><g fill="#1c1c1c" fill-opacity="1"><g transform="translate(364.235098, 372.323858)"><g><path d="M 36.921875 1.390625 C 30.359375 1.390625 24.460938 0.0234375 19.234375 -2.703125 C 14.015625 -5.429688 9.925781 -9.21875 6.96875 -14.0625 C 4.007812 -18.90625 2.53125 -24.378906 2.53125 -30.484375 C 2.53125 -36.578125 4.007812 -42.046875 6.96875 -46.890625 C 9.925781 -51.734375 14.015625 -55.519531 19.234375 -58.25 C 24.460938 -60.976562 30.359375 -62.34375 36.921875 -62.34375 C 43.484375 -62.34375 49.375 -60.976562 54.59375 -58.25 C 59.820312 -55.519531 63.914062 -51.734375 66.875 -46.890625 C 69.832031 -42.046875 71.3125 -36.578125 71.3125 -30.484375 C 71.3125 -24.378906 69.832031 -18.90625 66.875 -14.0625 C 63.914062 -9.21875 59.820312 -5.429688 54.59375 -2.703125 C 49.375 0.0234375 43.484375 1.390625 36.921875 1.390625 Z M 36.921875 -15.234375 C 39.472656 -15.234375 41.78125 -15.859375 43.84375 -17.109375 C 45.90625 -18.359375 47.546875 -20.128906 48.765625 -22.421875 C 49.984375 -24.710938 50.59375 -27.398438 50.59375 -30.484375 C 50.59375 -33.554688 49.984375 -36.238281 48.765625 -38.53125 C 47.546875 -40.820312 45.90625 -42.59375 43.84375 -43.84375 C 41.78125 -45.09375 39.472656 -45.71875 36.921875 -45.71875 C 34.367188 -45.71875 32.0625 -45.09375 30 -43.84375 C 27.9375 -42.59375 26.296875 -40.820312 25.078125 -38.53125 C 23.859375 -36.238281 23.25 -33.554688 23.25 -30.484375 C 23.25 -27.398438 23.859375 -24.710938 25.078125 -22.421875 C 26.296875 -20.128906 27.9375 -18.359375 30 -17.109375 C 32.0625 -15.859375 34.367188 -15.234375 36.921875 -15.234375 Z M 36.921875 -15.234375 "/></g></g></g><g fill="#1c1c1c" fill-opacity="1"><g transform="translate(439.02839, 372.323858)"><g><path d="M 4.96875 -60.953125 L 25.515625 -60.953125 L 25.515625 -15.9375 L 53.03125 -15.9375 L 53.03125 0 L 4.96875 0 Z M 4.96875 -60.953125 "/></g></g></g><g fill="#1c1c1c" fill-opacity="1"><g transform="translate(493.708489, 372.323858)"><g><path d="M 4.96875 -60.953125 L 25.515625 -60.953125 L 25.515625 -15.9375 L 53.03125 -15.9375 L 53.03125 0 L 4.96875 0 Z M 4.96875 -60.953125 "/></g></g></g><g fill="#1c1c1c" fill-opacity="1"><g transform="translate(548.388576, 372.323858)"><g><path d="M 55.640625 -15.5 L 55.640625 0 L 4.96875 0 L 4.96875 -60.953125 L 54.515625 -60.953125 L 54.515625 -45.453125 L 25.171875 -45.453125 L 25.171875 -38.3125 L 50.9375 -38.3125 L 50.9375 -23.515625 L 25.171875 -23.515625 L 25.171875 -15.5 Z M 55.640625 -15.5 "/></g></g></g><g fill="#1c1c1c" fill-opacity="1"><g transform="translate(607.944587, 372.323858)"><g><path d="M 36.484375 1.390625 C 30.035156 1.390625 24.226562 0.0390625 19.0625 -2.65625 C 13.894531 -5.351562 9.847656 -9.125 6.921875 -13.96875 C 3.992188 -18.820312 2.53125 -24.328125 2.53125 -30.484375 C 2.53125 -36.628906 3.992188 -42.125 6.921875 -46.96875 C 9.847656 -51.820312 13.894531 -55.597656 19.0625 -58.296875 C 24.226562 -60.992188 30.035156 -62.34375 36.484375 -62.34375 C 42.410156 -62.34375 47.691406 -61.296875 52.328125 -59.203125 C 56.972656 -57.117188 60.804688 -54.101562 63.828125 -50.15625 L 50.859375 -38.578125 C 47.078125 -43.335938 42.632812 -45.71875 37.53125 -45.71875 C 33.238281 -45.71875 29.785156 -44.335938 27.171875 -41.578125 C 24.554688 -38.816406 23.25 -35.117188 23.25 -30.484375 C 23.25 -25.835938 24.554688 -22.132812 27.171875 -19.375 C 29.785156 -16.613281 33.238281 -15.234375 37.53125 -15.234375 C 42.632812 -15.234375 47.078125 -17.613281 50.859375 -22.375 L 63.828125 -10.796875 C 60.804688 -6.847656 56.972656 -3.828125 52.328125 -1.734375 C 47.691406 0.347656 42.410156 1.390625 36.484375 1.390625 Z M 36.484375 1.390625 "/></g></g></g><g fill="#1c1c1c" fill-opacity="1"><g transform="translate(673.682579, 372.323858)"><g><path d="M 18.203125 -45.015625 L 0.34375 -45.015625 L 0.34375 -60.953125 L 56.59375 -60.953125 L 56.59375 -45.015625 L 38.75 -45.015625 L 38.75 0 L 18.203125 0 Z M 18.203125 -45.015625 "/></g></g></g><g fill="#1c1c1c" fill-opacity="1"><g transform="translate(731.58428, 372.323858)"><g><path d="M 4.96875 -60.953125 L 25.515625 -60.953125 L 25.515625 0 L 4.96875 0 Z M 4.96875 -60.953125 "/></g></g></g><g fill="#1c1c1c" fill-opacity="1"><g transform="translate(763.016654, 372.323858)"><g><path d="M 70.09375 -60.953125 L 44.328125 0 L 24.125 0 L -1.65625 -60.953125 L 20.46875 -60.953125 L 35 -25.34375 L 49.890625 -60.953125 Z M 70.09375 -60.953125 "/></g></g></g><g fill="#1c1c1c" fill-opacity="1"><g transform="translate(832.411611, 372.323858)"><g><path d="M 55.640625 -15.5 L 55.640625 0 L 4.96875 0 L 4.96875 -60.953125 L 54.515625 -60.953125 L 54.515625 -45.453125 L 25.171875 -45.453125 L 25.171875 -38.3125 L 50.9375 -38.3125 L 50.9375 -23.515625 L 25.171875 -23.515625 L 25.171875 -15.5 Z M 55.640625 -15.5 "/></g></g></g></svg>